<svg xmlns="http://www.w3.org/2000/svg" viewBox="0 0 39.71 16.75"><path fill="none" stroke="#ffc925" stroke-miterlimit="10" stroke-width="2" d="M29.24 12.73H12.47m-6.6 0S.95 12.58 1 9.92v-4a1.37 1.37 0 011.38-1.39h2S10.69.78 17.43.98c4.15.38 4.61.75 8.7 3.35 1.45.93 5.34 1.83 7.78 2.1 3 .32 5.21 2.6 4.72 5.58 0 .06-.08.62-.1.69h-3.2"/><path d="M1.79 6.87h1.7a1 1 0 011 1v0a1.7 1.7 0 01-1.7 1.7h-1 0v-2.7h0z" fill="none" stroke="#ffc925" stroke-miterlimit="10" stroke-width="2"/><circle cx="9.14" cy="12.73" r="3.03" fill="none" stroke="#ffc925" stroke-miterlimit="10" stroke-width="2"/><circle cx="9.14" cy="12.65" r=".81" fill="none" stroke="#ffc925" stroke-miterlimit="10"/><circle cx="31.96" cy="12.73" r="3.03" fill="none" stroke="#ffc925" stroke-miterlimit="10" stroke-width="2"/><circle cx="31.96" cy="12.65" r=".81" fill="none" stroke="#ffc925" stroke-miterlimit="10"/><path d="M7.13 3.22s1.27 3.11 3.43 3.11h22.2M9.95 9.27l1.41-7.51" fill="none" stroke="#ffc925" stroke-linecap="round" stroke-miterlimit="10" stroke-width="2"/><path fill="none" stroke="#ffc925" stroke-linecap="round" stroke-miterlimit="10" stroke-width="2" d="M19.44 12.35V5.96l-1.62-4.57"/><path d="M37.75 8.94a.93.93 0 01-1.11.74.94.94 0 01-.74-1.11 1 1 0 011.12-.74" fill="none" stroke="#ffc925" stroke-miterlimit="10" stroke-width="2"/></svg>