<svg xmlns="http://www.w3.org/2000/svg" viewBox="0 0 52.69 25.35"><path fill="none" stroke="#ff8500" stroke-linecap="round" stroke-linejoin="round" stroke-width="3" d="M35.22 19.5H17.4m-9.14 0a15 15 0 01-1.84 0c-2-.1-4.92-.67-4.92-3.09 0-3.23 3.92-6.38 6.53-7 2.33-.55 7.3-.85 12.44-4.85a14.52 14.52 0 017.47-2.93c1-.1 2-.14 2.94-.16a14.77 14.77 0 018.31 2.42l3.2 2.08a10.53 10.53 0 004.82 1.69l1.66.15a2.57 2.57 0 012.33 2.56v5.95s-.08 3.15-6.23 3.15"/><circle cx="12.97" cy="19.54" r="4.31" fill="none" stroke="#ff8500" stroke-linecap="round" stroke-linejoin="round" stroke-width="3"/><circle cx="40" cy="19.54" r="4.31" fill="none" stroke="#ff8500" stroke-linecap="round" stroke-linejoin="round" stroke-width="3"/><path fill="none" stroke="#ff8500" stroke-linecap="round" stroke-linejoin="round" stroke-width="3" d="M12.97 8.37h17.25"/></svg>