<svg xmlns="http://www.w3.org/2000/svg" viewBox="0 0 45.83 31.09"><circle cx="6.69" cy="26.6" r="3.48" fill="none" stroke="#ffc925" stroke-miterlimit="10" stroke-width="2"/><circle cx="6.69" cy="26.49" r="1.11" fill="none" stroke="#ffc925" stroke-miterlimit="10" stroke-width="2"/><circle cx="14.07" cy="26.6" r="3.48" fill="none" stroke="#ffc925" stroke-miterlimit="10" stroke-width="2"/><circle cx="14.07" cy="26.49" r="1.11" fill="none" stroke="#ffc925" stroke-miterlimit="10" stroke-width="2"/><circle cx="37.17" cy="26.6" r="3.48" fill="none" stroke="#ffc925" stroke-miterlimit="10" stroke-width="2"/><circle cx="37.17" cy="26.49" r="1.11" fill="none" stroke="#ffc925" stroke-miterlimit="10" stroke-width="2"/><path fill="none" stroke="#ffc925" stroke-miterlimit="10" stroke-width="2" d="M33.69 26.26H17.75m5.41-12.42h3.67v8.56h-3.67z"/><path fill="none" stroke="#ffc925" stroke-linecap="round" stroke-miterlimit="10" stroke-width="2" d="M26.83 1v21.4M21.67 6.26l3.37 3.37v4.11M9.19 22.4l5.66-3.09"/><path d="M1 22.4h29.8l1.88-.89a8.63 8.63 0 018.85.86l1.67 1.23a1 1 0 001.63.26h0v-3.2a1.47 1.47 0 00-1.47-1.47h0v-2.54l.17-.11a2.71 2.71 0 001.3-2.32v-8.2h0a3.11 3.11 0 00-3.11-3.14H30a3.26 3.26 0 00-3.25 3.26V22.4" fill="none" stroke="#ffc925" stroke-linecap="round" stroke-miterlimit="10" stroke-width="2"/><path fill="none" stroke="#ffc925" stroke-miterlimit="10" stroke-width="2" d="M44.83 11.27h-5.99l-1.67-1.2h-2.2v11.07M34.2 2.88v7.19m2.4-7.19v17.55M28.4 13h2.73v0a2.42 2.42 0 01-2.42 2.42h-.31 0V13h0zm-.28 4.42h2.83m-2.83 1.96h2.83"/><path fill="none" stroke="#ffc925" stroke-linecap="round" stroke-miterlimit="10" stroke-width="2" d="M44.83 13.52h-4.18m4.18 1.72h-2.52M28.98 6.26h4.71M28.4 8.29h5.29"/></svg>